<svg width="126" height="126" viewBox="0 0 126 126" fill="none" xmlns="http://www.w3.org/2000/svg">
<path fill-rule="evenodd" clip-rule="evenodd" d="M92.6922 6.801V6.801C85.0918 -0.80002 72.1437 0.285768 62.5367 5.10722C61.8762 5.43869 61.246 5.78373 60.6595 6.14158C60.5801 6.19004 60.5022 6.24095 60.4259 6.29425V6.29425C57.6937 8.20455 57.8099 12.4244 55.1319 14.4101C40.2274 25.4619 27.0732 38.7003 16.1151 53.6794C14.5666 55.7962 12.5339 57.5191 10.156 58.6255L6.55399 60.3014C6.38869 60.3783 6.24822 60.5 6.14846 60.6526V60.6526C5.79063 61.239 5.44561 61.8691 5.11416 62.5295C0.292457 72.1366 -0.793309 85.0849 6.80784 92.6854V92.6854L7.51336 93.391C10.0216 95.8995 14.3377 94.97 17.053 94.0114C18.7107 93.4262 20.4333 92.9698 22.1912 92.9698V92.9698C28.1776 92.9698 33.0305 97.8229 33.0305 103.809V103.809C33.0305 105.567 32.574 107.29 31.9888 108.948C31.0302 111.663 30.1007 115.979 32.609 118.487L33.3146 119.193V119.193C40.916 126.793 53.8638 125.708 63.4709 120.886C64.1312 120.555 64.7613 120.21 65.3477 119.852C65.4271 119.803 65.505 119.753 65.5813 119.7V119.7C69.1127 117.24 69.4746 112.033 72.9114 109.442C87.4778 98.4629 100.341 85.38 111.075 70.6179C112.404 68.7904 114.252 67.3978 116.395 66.6813L119.508 65.6407C119.637 65.5977 119.77 65.4812 119.842 65.3667V65.3667C119.867 65.3275 119.866 65.3187 119.882 65.2748L121.519 60.655C124.446 52.3935 125.756 42.9326 120.989 35.5776C120.431 34.7177 119.834 33.9422 119.2 33.3078L118.493 32.6017C115.985 30.0937 111.669 31.0231 108.954 31.9816C107.297 32.5667 105.574 33.023 103.817 33.023V33.023C97.8303 33.023 92.9775 28.1698 92.9775 22.1836V22.1836C92.9775 20.4258 93.4339 18.7033 94.019 17.0458C94.9774 14.3307 95.9066 10.015 93.3987 7.507L92.6922 6.801Z" fill="url(#paint0_linear_70_101)"/>
<defs>
<linearGradient id="paint0_linear_70_101" x1="125.585" y1="126.028" x2="-23.6354" y2="42.0888" gradientUnits="userSpaceOnUse">
<stop stop-color="#FF7BEA"/>
<stop offset="1" stop-color="#1B4DFF"/>
</linearGradient>
</defs>
</svg>
